<?xml version="1.0" standalone="no"?>
<!DOCTYPE svg PUBLIC "-//W3C//DTD SVG 20010904//EN"
 "http://www.w3.org/TR/2001/REC-SVG-20010904/DTD/svg10.dtd">
<svg version="1.0" xmlns="http://www.w3.org/2000/svg"
 width="1024.000000pt" height="748.000000pt" viewBox="0 0 1024.000000 748.000000"
 preserveAspectRatio="xMidYMid meet">

<g transform="translate(0.000000,748.000000) scale(0.100000,-0.100000)"
fill="#000000" stroke="none">
<path d="M0 3740 l0 -3740 5120 0 5120 0 0 3740 0 3740 -5120 0 -5120 0 0
-3740z m6270 3132 c-100 -93 -110 -108 -75 -124 14 -6 25 -18 25 -25 0 -13
-249 -286 -754 -828 -95 -101 -167 -188 -180 -215 -20 -44 -21 -61 -24 -558
-3 -510 -3 -514 19 -558 32 -67 73 -89 214 -114 241 -42 318 -87 228 -134
-113 -58 -589 -82 -888 -45 -103 13 -207 43 -229 68 -16 18 -16 20 10 40 35
27 103 47 241 71 124 21 159 35 197 80 46 56 48 80 44 610 l-3 496 -25 46
c-14 26 -193 230 -405 460 -527 572 -525 570 -525 579 0 13 52 37 106 49 293
66 1357 78 1779 19 l80 -11 99 106 100 106 23 -22 23 -21 -80 -75z m-1836
-1122 c32 -157 24 -148 121 -125 76 19 75 19 75 -5 0 -12 -9 -22 -22 -25 -13
-3 -58 -14 -100 -24 l-77 -18 -5 21 c-8 31 -66 306 -66 311 0 3 10 5 23 5 21
0 24 -9 51 -140z m1708 48 c85 -32 91 -37 78 -58 -7 -12 -23 -9 -90 17 l-82
31 -19 -45 c-10 -24 -19 -48 -19 -51 0 -4 29 -18 65 -30 39 -15 65 -30 65 -38
0 -26 -26 -26 -85 0 -32 15 -58 26 -60 26 -1 0 -14 -31 -29 -70 -26 -67 -50
-88 -62 -57 -4 12 42 138 103 280 18 42 10 43 135 -5z m-1924 -139 c67 -72
119 -135 116 -140 -11 -19 -40 -8 -66 25 l-28 35 -75 -31 -75 -30 0 -53 c0
-44 -3 -54 -20 -58 -19 -5 -20 0 -20 183 0 189 1 197 35 199 6 1 66 -58 133
-130z m-330 -162 c80 -135 81 -138 59 -148 -18 -8 -51 1 -177 50 -84 33 -156
59 -158 57 -2 -3 29 -53 68 -112 73 -108 74 -109 36 -127 -5 -2 -164 237 -172
258 -3 6 7 17 20 25 23 12 39 8 173 -43 81 -31 149 -55 150 -53 1 1 -26 51
-61 111 -57 98 -62 111 -47 122 9 6 19 9 22 5 4 -4 43 -69 87 -145z m2644 108
c46 -31 78 -90 78 -146 0 -119 -128 -209 -236 -164 -77 32 -114 85 -114 166 0
146 150 225 272 144z m356 -266 c87 -43 126 -153 83 -237 -38 -75 -132 -116
-206 -92 -124 41 -173 192 -92 284 61 69 134 84 215 45z m-3436 -20 c77 -21
139 -122 123 -200 -17 -82 -96 -149 -176 -149 -79 0 -160 69 -175 147 -14 76
43 170 121 198 49 17 60 18 107 4z m3750 -320 c69 -84 85 -156 48 -217 -45
-74 -116 -111 -186 -97 -30 5 -53 22 -107 78 -37 39 -66 75 -64 80 1 5 59 58
127 117 93 80 128 105 135 96 6 -7 27 -33 47 -57z m-3992 -80 c105 -81 118
-93 107 -109 -13 -22 -5 -27 -149 83 -111 84 -128 103 -111 121 11 11 29 0
153 -95z m-215 -49 c4 -6 -3 -27 -15 -47 -11 -20 -19 -42 -16 -48 2 -7 49 -38
103 -69 54 -31 104 -60 111 -64 12 -8 7 -42 -7 -42 -4 0 -58 29 -121 65 -63
36 -117 65 -121 65 -4 0 -19 -21 -34 -46 -22 -37 -29 -43 -41 -33 -8 6 -14 16
-14 21 0 15 129 208 139 208 5 0 13 -5 16 -10z m-78 -402 c79 -35 143 -65 143
-68 0 -22 -34 -36 -141 -61 -68 -15 -134 -28 -146 -29 -35 0 -27 -14 15 -29
158 -57 192 -73 192 -92 0 -10 -4 -19 -8 -19 -5 0 -51 17 -104 39 -52 21 -118
46 -147 56 -43 14 -52 21 -49 37 3 24 25 31 190 68 59 13 105 27 103 31 -3 4
-51 26 -109 49 -86 36 -103 46 -99 61 3 11 8 19 12 19 3 0 70 -28 148 -62z
m4585 -745 c-28 -131 -53 -257 -57 -280 l-7 -42 69 35 c64 34 73 36 145 32 99
-4 148 -36 193 -122 27 -53 30 -71 33 -167 5 -137 -16 -246 -68 -357 -96 -201
-262 -276 -464 -208 l-79 27 -80 -21 c-45 -11 -91 -20 -104 -20 -33 0 -63 34
-63 73 0 17 30 178 66 357 76 379 134 701 134 742 0 22 -8 33 -36 50 -32 19
-34 24 -28 52 9 44 9 44 69 51 30 4 115 17 188 29 72 12 133 19 135 15 2 -5
-19 -115 -46 -246z m-6017 133 c0 -36 -3 -40 -32 -48 -18 -5 -37 -16 -42 -26
-5 -9 -32 -154 -61 -322 -104 -611 -156 -808 -259 -967 -70 -109 -151 -156
-266 -156 -90 0 -141 24 -174 83 -12 23 -20 44 -16 48 4 4 35 7 69 7 77 0 105
17 146 88 31 54 91 224 110 312 36 163 140 797 140 854 0 34 -23 71 -45 71
-25 0 -33 21 -22 61 l10 39 221 -2 221 -3 0 -39z m958 -48 c-2 -48 -7 -98 -13
-112 -9 -24 -14 -26 -69 -26 -56 0 -60 2 -80 33 -11 19 -33 39 -48 46 -28 13
-239 38 -248 30 -2 -3 -20 -97 -40 -209 -20 -113 -38 -213 -41 -223 -6 -18 1
-19 96 -15 l103 3 41 48 c31 34 49 47 69 47 33 0 33 2 7 -160 -11 -69 -20
-128 -20 -132 0 -10 -71 -29 -82 -22 -4 3 -8 14 -8 25 0 11 -5 29 -10 40 -10
17 -22 19 -115 19 -58 0 -105 -1 -105 -2 0 -2 -20 -115 -45 -253 -25 -137 -45
-262 -45 -276 0 -15 -6 -31 -12 -37 -19 -15 -135 -32 -216 -32 -84 0 -82 -5
-57 125 58 298 175 978 175 1011 0 41 -16 64 -52 77 -20 7 -23 38 -8 68 11 19
23 19 418 17 l407 -3 -2 -87z m1073 68 c94 -22 155 -62 191 -123 26 -44 28
-56 28 -143 -1 -122 -25 -187 -100 -269 -45 -48 -75 -69 -153 -108 -6 -2 56
-226 84 -305 55 -155 93 -191 181 -169 44 12 48 11 64 -11 34 -44 31 -57 -18
-88 -65 -41 -168 -74 -233 -74 -144 0 -199 81 -288 424 -17 63 -33 127 -36
143 -6 24 -11 27 -50 27 l-45 0 -10 -52 c-20 -101 -70 -393 -77 -445 -6 -51
-6 -51 -53 -63 -25 -7 -92 -15 -148 -18 -83 -4 -103 -2 -103 9 0 8 42 248 94
534 52 286 97 540 101 565 8 54 -7 79 -56 96 -31 10 -34 15 -31 45 1 18 8 37
15 42 7 4 138 6 292 4 220 -3 295 -8 351 -21z m2434 -124 c0 -11 -13 -83 -30
-160 -16 -78 -30 -144 -30 -147 0 -3 41 -5 90 -5 100 0 100 0 84 -79 l-6 -31
-94 0 c-51 0 -95 -4 -98 -9 -10 -15 -94 -453 -98 -505 -4 -68 12 -77 96 -49
l65 21 15 -33 c9 -18 16 -37 16 -43 0 -9 -109 -62 -212 -103 -29 -11 -76 -21
-103 -21 -71 -1 -112 23 -137 80 -29 64 -20 150 41 427 26 121 46 223 44 228
-2 4 -37 7 -77 7 l-73 0 10 50 c8 43 14 51 36 56 95 21 132 36 140 57 4 12 24
69 45 127 20 58 40 110 44 117 6 10 82 21 215 32 10 0 17 -6 17 -17z m-1535
-283 c268 -49 273 -292 9 -468 -83 -56 -153 -81 -227 -81 l-49 0 7 -32 c12
-56 39 -102 75 -126 50 -34 134 -28 223 16 37 18 71 31 76 28 4 -3 14 -19 21
-36 15 -37 8 -48 -65 -90 -165 -94 -342 -118 -453 -61 -175 90 -209 370 -77
630 86 171 264 256 460 220z m785 -15 c113 -34 165 -124 126 -218 -15 -36 -49
-76 -65 -76 -5 0 -23 11 -39 25 -27 23 -29 28 -21 63 5 23 5 49 -2 70 -26 79
-169 84 -169 5 0 -46 29 -90 135 -208 157 -174 183 -245 129 -353 -37 -75
-114 -130 -219 -158 -67 -18 -189 -18 -252 1 -59 18 -129 66 -145 100 -10 22
-7 31 19 67 17 24 56 60 86 82 54 38 57 39 81 23 13 -9 50 -55 81 -102 49 -74
59 -85 85 -85 31 0 60 30 60 63 0 32 -39 95 -103 168 -157 179 -179 213 -198
298 -14 66 1 120 48 172 42 46 77 67 136 79 52 11 162 3 227 -16z m1527 0 c89
-25 143 -110 143 -227 l0 -43 73 8 c39 4 91 10 115 13 l43 5 -3 -42 c-4 -50
-5 -50 -143 -70 l-90 -13 -18 -69 c-71 -273 -216 -426 -405 -428 -105 -1 -149
16 -209 77 -65 67 -83 122 -83 255 0 119 25 223 77 322 103 197 283 273 500
212z m1722 15 c28 -6 67 -22 87 -35 l36 -25 24 26 c22 24 29 25 127 25 85 0
106 -3 111 -15 3 -9 -12 -96 -34 -194 -60 -266 -82 -437 -60 -471 8 -12 14
-12 45 3 50 24 62 22 81 -15 l17 -32 -44 -38 c-59 -51 -164 -105 -220 -113
-62 -9 -112 12 -136 59 l-18 35 -45 -31 c-67 -45 -108 -60 -170 -60 -100 0
-171 46 -217 140 -26 53 -28 65 -28 187 0 197 46 334 147 441 68 72 135 106
240 123 4 1 30 -4 57 -10z m1198 -21 c90 -75 7 -257 -126 -275 -38 -5 -41 -3
-51 23 -26 67 -67 81 -111 40 -18 -17 -29 -39 -33 -73 -4 -26 -23 -120 -42
-208 -20 -88 -38 -196 -42 -240 l-7 -80 -49 -12 c-27 -7 -87 -15 -132 -19 -76
-6 -84 -5 -91 12 -4 10 16 135 46 284 29 147 55 296 58 333 5 60 4 67 -19 89
-13 12 -32 28 -42 33 -14 8 -16 15 -7 37 11 31 16 32 200 54 153 18 153 18
149 -59 -2 -26 -2 -47 0 -47 1 0 17 16 34 35 36 41 106 85 151 95 38 7 91 -2
114 -22z m-6948 -287 c11 -7 11 -21 0 -87 l-14 -79 -200 0 -200 0 2 60 c1 33
6 72 12 88 l11 27 187 0 c104 0 194 -4 202 -9z m6271 -891 l0 -30 -1617 0
-1617 0 42 -35 c56 -49 102 -143 102 -210 0 -70 -40 -146 -98 -188 -37 -27
-54 -32 -115 -35 -58 -2 -78 1 -104 17 -43 27 -64 62 -65 108 -1 54 24 97 67
117 45 21 69 17 73 -12 3 -18 -1 -22 -22 -22 -56 0 -86 -76 -51 -127 37 -53
141 -51 199 3 85 80 82 197 -8 292 -54 59 -100 76 -196 76 -105 0 -171 -26
-231 -91 -64 -69 -84 -123 -84 -223 0 -76 3 -91 30 -139 34 -61 95 -119 163
-152 40 -20 63 -24 147 -24 87 0 107 3 156 26 106 50 214 132 344 262 83 82
154 144 198 169 37 22 67 41 67 42 0 0 -44 1 -98 2 -53 0 -122 7 -152 14 -83
19 -154 59 -137 76 3 3 40 -5 84 -18 70 -21 97 -23 268 -22 105 1 235 6 290
13 274 31 353 35 451 23 168 -21 283 -81 419 -217 69 -69 100 -109 132 -170
44 -85 76 -180 87 -257 l7 -48 -30 0 c-28 0 -31 3 -31 33 0 87 -68 256 -134
333 -74 87 -209 145 -288 123 -50 -13 -104 -61 -119 -106 -14 -44 -7 -114 15
-148 37 -57 126 -70 173 -25 21 19 21 19 39 -1 16 -17 16 -22 4 -30 -80 -53
-147 -61 -223 -26 -74 34 -133 90 -232 222 -100 132 -126 158 -187 185 -94 41
-192 36 -270 -15 -79 -52 -118 -206 -72 -286 43 -75 143 -89 198 -28 24 27 27
38 23 73 -7 53 -39 80 -85 72 -40 -6 -56 19 -27 40 71 52 174 -40 162 -145 -6
-55 -53 -104 -116 -121 -152 -41 -273 123 -214 290 11 30 24 64 28 74 17 38
-85 -45 -203 -165 -125 -129 -219 -200 -340 -257 -75 -36 -80 -37 -192 -37
-106 0 -120 2 -173 28 -154 76 -243 241 -217 401 13 83 45 143 112 209 l59 57
-226 0 -225 0 69 -67 c84 -84 111 -146 111 -257 0 -91 -21 -159 -69 -222 -79
-104 -184 -156 -316 -156 -170 1 -365 112 -545 311 -67 73 -166 161 -183 161
-3 0 3 -21 14 -46 30 -66 35 -141 15 -202 -46 -139 -216 -173 -310 -62 -52 62
-26 171 49 207 43 21 90 9 90 -22 0 -17 -6 -20 -36 -17 -30 3 -40 -2 -58 -24
-68 -86 45 -203 147 -150 81 42 102 150 48 260 -31 63 -59 87 -134 111 -138
45 -269 -19 -383 -187 -59 -87 -161 -190 -216 -221 -68 -36 -120 -43 -181 -23
-63 21 -78 37 -61 64 12 20 13 20 42 -2 38 -28 106 -29 137 -1 45 40 63 121
39 182 -52 137 -244 139 -380 4 -83 -83 -159 -254 -159 -358 0 -30 -3 -33 -31
-33 l-30 0 7 48 c11 77 51 192 95 270 50 91 159 207 250 268 170 113 319 133
684 93 290 -31 521 -32 628 -1 91 26 87 26 87 9 0 -18 -74 -52 -145 -67 -33
-7 -104 -13 -157 -14 -54 -1 -98 -4 -98 -8 0 -3 13 -11 30 -16 55 -20 124 -75
245 -197 135 -137 267 -231 372 -266 85 -28 204 -24 275 10 65 32 125 92 156
159 22 47 27 71 27 137 -1 72 -4 87 -35 143 -72 136 -219 200 -361 159 -198
-58 -245 -312 -72 -389 54 -24 100 -18 140 16 53 46 25 136 -43 136 -17 0 -24
6 -24 19 0 35 64 37 104 2 99 -86 24 -234 -118 -233 -216 2 -294 269 -125 427
l48 45 -1589 0 -1590 0 0 30 0 30 3800 0 3800 0 0 -30z m-5319 -1310 c90 -215
87 -202 54 -198 -22 2 -31 12 -45 48 l-18 45 -81 3 -82 3 -21 -51 c-17 -40
-25 -50 -44 -50 -13 0 -24 2 -24 3 0 2 30 75 66 163 36 87 70 169 75 182 6 16
16 22 30 20 16 -2 35 -37 90 -168z m269 45 c0 -170 19 -205 108 -205 28 0 45
7 63 26 23 24 24 33 27 165 3 137 4 140 25 137 21 -3 22 -9 25 -116 1 -62 -2
-131 -9 -154 -24 -89 -117 -130 -201 -89 -68 33 -77 56 -78 212 -1 74 -1 137
-1 142 1 4 10 7 21 7 19 0 20 -7 20 -125z m645 100 c0 -17 -7 -20 -50 -21
l-50 -1 -3 -162 c-2 -161 -3 -161 -26 -161 l-23 0 -1 162 0 162 -51 -3 c-49
-2 -51 -1 -51 24 l0 26 128 -3 c119 -3 127 -4 127 -23z m195 -55 l0 -80 100 0
100 0 0 81 c0 78 1 80 23 77 22 -3 22 -5 25 -185 l2 -183 -25 0 c-25 0 -25 1
-25 85 l0 85 -100 0 -100 0 0 -85 c0 -84 0 -85 -25 -85 l-25 0 0 178 c0 98 3
182 7 185 3 4 15 7 25 7 16 0 18 -9 18 -80z m640 56 c0 -23 -2 -24 -82 -22
l-83 1 -3 -57 -3 -58 76 0 c68 0 75 -2 75 -20 0 -18 -7 -20 -75 -20 l-75 0 0
-65 0 -65 85 0 c78 0 85 -2 85 -20 0 -19 -7 -20 -105 -20 l-105 0 0 185 0 185
105 0 c104 0 105 0 105 -24z m316 -118 c53 -79 100 -146 103 -150 3 -4 6 59 6
140 0 145 0 147 23 150 l22 3 0 -185 0 -186 -27 0 c-25 0 -40 18 -130 152
l-103 152 0 -152 c0 -145 -1 -152 -20 -152 -19 0 -20 7 -20 185 l0 185 24 0
c20 0 42 -25 122 -142z m559 117 c0 -17 -7 -20 -50 -21 l-50 -1 -3 -165 -2
-165 -25 5 -25 4 0 164 0 163 -50 -3 c-47 -3 -50 -2 -50 21 l0 24 128 -3 c119
-3 127 -4 127 -23z m198 13 c-2 -5 -3 -87 -3 -183 0 -168 -1 -175 -20 -175
-19 0 -20 7 -20 186 l0 185 23 -3 c12 -2 21 -6 20 -10z m432 -3 c37 -15 54
-40 38 -56 -5 -5 -24 -1 -48 11 -106 54 -205 -11 -205 -135 0 -53 3 -60 39
-96 36 -36 43 -39 94 -39 44 0 61 5 85 25 22 18 32 21 40 13 20 -20 14 -37
-20 -58 -110 -67 -260 -5 -287 118 -33 153 119 278 264 217z"/>
<path d="M4845 6764 c-135 -5 -434 -24 -482 -31 -186 -25 300 -63 812 -63 329
0 590 11 753 31 154 19 129 31 -108 49 -131 10 -820 20 -975 14z"/>
<path d="M4090 5648 l0 -86 55 21 c30 12 55 24 55 27 -1 3 -25 32 -55 65 l-55
60 0 -87z"/>
<path d="M6355 5568 c-103 -81 -49 -238 82 -238 58 0 102 35 124 98 16 47 -10
114 -55 142 -45 27 -115 27 -151 -2z"/>
<path d="M6748 5299 c-46 -24 -68 -64 -68 -125 0 -41 5 -51 39 -85 35 -35 44
-39 91 -39 47 0 56 4 91 39 35 35 39 44 39 89 0 59 -32 105 -87 128 -43 18
-60 17 -105 -7z"/>
<path d="M3333 5260 c-93 -57 -81 -196 22 -235 53 -21 97 -10 139 34 77 81 17
221 -94 221 -19 0 -49 -9 -67 -20z"/>
<path d="M7080 4952 c-31 -26 -73 -61 -94 -79 l-39 -32 33 -41 c56 -71 115
-87 177 -49 71 44 82 119 30 195 -18 26 -37 49 -43 50 -5 2 -34 -18 -64 -44z"/>
<path d="M7473 3303 c-12 -2 -32 -14 -45 -26 -19 -19 -31 -62 -77 -285 -30
-144 -51 -265 -48 -268 3 -4 34 -8 69 -11 54 -4 68 -2 98 19 71 47 121 203
123 383 1 145 -36 204 -120 188z"/>
<path d="M3245 3776 c-2 -6 -20 -108 -40 -226 -20 -118 -39 -225 -42 -237 -5
-21 -2 -23 44 -23 69 0 131 34 165 90 57 94 78 273 38 337 -10 17 -29 37 -42
44 -33 18 -119 28 -123 15z"/>
<path d="M4263 3310 c-50 -30 -91 -130 -106 -257 -6 -49 9 -56 53 -26 85 56
130 134 130 224 0 79 -20 94 -77 59z"/>
<path d="M6521 3311 c-73 -73 -117 -409 -67 -513 45 -94 159 -62 226 64 35 66
81 198 73 210 -2 5 -21 8 -41 8 -55 0 -123 38 -145 80 -15 28 -17 48 -12 103
7 72 0 82 -34 48z"/>
<path d="M8402 3326 c-56 -64 -110 -258 -113 -406 -2 -81 5 -115 29 -142 19
-22 73 -23 112 -3 26 13 30 21 30 55 0 74 30 269 59 380 l28 111 -25 19 c-39
32 -85 26 -120 -14z"/>
<path d="M3153 2126 c-66 -15 -223 -91 -223 -108 0 -6 7 -7 18 -2 26 11 99 17
136 10 48 -9 121 -77 142 -131 12 -33 15 -62 11 -106 l-5 -61 29 28 c16 15 58
69 94 120 78 110 158 188 222 216 l48 21 -30 9 c-56 17 -374 19 -442 4z"/>
<path d="M6770 2129 c-100 -12 -101 -13 -55 -36 65 -34 128 -96 193 -190 33
-48 78 -108 100 -133 l40 -45 -5 61 c-3 37 -1 76 7 99 16 47 75 114 117 132
38 15 121 17 157 3 16 -6 26 -6 26 0 0 16 -168 91 -238 106 -73 15 -224 16
-342 3z"/>
<path d="M3523 980 l-31 -80 65 0 c48 0 64 3 61 13 -3 6 -16 42 -29 80 -13 37
-26 67 -30 67 -3 0 -19 -36 -36 -80z"/>
</g>
</svg>
