<?xml version="1.0" standalone="no"?>
<!DOCTYPE svg PUBLIC "-//W3C//DTD SVG 20010904//EN"
 "http://www.w3.org/TR/2001/REC-SVG-20010904/DTD/svg10.dtd">
<svg version="1.0" xmlns="http://www.w3.org/2000/svg"
 width="128.000000pt" height="126.000000pt" viewBox="0 0 128.000000 126.000000"
 preserveAspectRatio="xMidYMid meet">

<g transform="translate(0.000000,126.000000) scale(0.100000,-0.100000)"
fill="#000000" stroke="none">
<path d="M408 1185 c-106 -15 -143 -28 -131 -49 5 -7 46 -63 93 -124 73 -96
87 -110 99 -97 12 12 9 20 -20 57 -18 24 -57 67 -87 95 -29 29 -51 57 -47 63
3 5 -2 10 -12 10 -16 1 -16 2 -2 10 54 32 508 39 604 10 40 -12 40 -13 15 -23
-16 -7 -129 -11 -310 -12 -157 0 -267 -2 -245 -5 38 -5 39 -6 13 -13 -55 -15
-27 -23 35 -11 34 8 80 13 102 13 39 -1 39 -1 10 -9 -16 -4 -48 -12 -70 -16
l-40 -7 45 -8 c25 -4 103 -8 174 -8 124 -1 128 -2 113 -19 -22 -24 -21 -32 4
-32 26 0 56 16 94 49 l29 26 -25 -35 c-14 -19 -65 -90 -113 -157 -109 -152
-128 -161 -180 -82 -15 21 -31 39 -36 39 -23 0 -21 -32 4 -65 25 -32 31 -35
84 -36 50 -1 53 -2 22 -9 l-35 -7 25 -11 c22 -11 21 -11 -17 -6 -25 3 -70 -1
-112 -12 l-71 -17 21 -28 c11 -16 22 -29 24 -29 14 0 67 40 55 41 -43 2 33 18
89 18 52 1 62 4 57 16 -3 9 0 15 9 15 8 0 12 6 9 13 -5 14 63 119 186 287 42
58 80 111 84 118 28 48 -318 78 -546 47z m502 -74 c-9 -17 -14 -18 -47 -8
l-38 12 45 6 c25 3 46 7 48 7 1 1 -2 -7 -8 -17z"/>
<path d="M740 993 c-19 -3 -41 -10 -48 -16 -18 -14 -57 -94 -66 -132 -4 -16
-9 -38 -12 -48 -13 -42 37 6 94 91 63 94 75 113 70 110 -2 0 -19 -3 -38 -5z"/>
<path d="M507 944 c-30 -28 -30 -46 0 -23 17 13 17 13 0 -11 -9 -14 -29 -43
-44 -65 -14 -22 -34 -52 -44 -66 -27 -40 -12 -51 51 -39 65 12 70 16 36 31
-21 10 -24 17 -19 38 3 14 16 40 28 56 29 40 36 61 27 85 -7 19 -8 19 -35 -6z"/>
<path d="M280 932 c0 -12 104 -112 117 -112 7 0 18 10 24 22 10 19 8 25 -17
46 -47 39 -124 66 -124 44z"/>
<path d="M808 909 c-29 -16 -42 -50 -48 -119 -5 -65 -5 -65 -39 -70 -29 -4
-35 -11 -47 -47 -8 -24 -19 -69 -24 -100 l-9 -58 4 65 c3 58 2 63 -11 46 -11
-16 -14 -65 -15 -223 -2 -240 -1 -226 -14 -235 -5 -4 11 -8 36 -8 56 0 64 7
42 34 -18 21 -18 21 2 4 11 -9 32 -20 48 -23 36 -9 44 -25 22 -41 -14 -10 -52
-13 -139 -12 -67 1 -107 5 -91 8 27 5 24 7 -21 13 -28 4 -61 16 -74 27 -17 15
-27 17 -41 10 -38 -21 -33 -37 21 -66 30 -17 57 -19 205 -19 150 0 175 2 210
20 22 11 42 29 44 40 3 17 1 18 -13 6 -14 -12 -16 -12 -10 2 8 22 -22 35 -110
49 -61 10 -76 16 -81 33 -8 28 -19 235 -12 235 40 0 165 -25 183 -36 23 -16
95 -147 134 -244 12 -30 27 -66 32 -80 9 -23 11 -21 32 40 13 36 37 88 55 117
l32 51 -54 74 c-29 41 -72 111 -95 155 -23 44 -60 102 -82 129 -54 65 -65 108
-46 179 15 57 10 65 -26 44z m-398 -759 c8 -5 11 -10 5 -10 -5 0 -17 5 -25 10
-8 5 -10 10 -5 10 6 0 17 -5 25 -10z m410 -10 c-8 -5 -22 -9 -30 -9 -10 0 -8
3 5 9 27 12 43 12 25 0z"/>
<path d="M590 666 c0 -7 -12 -16 -27 -19 -16 -3 -44 -19 -63 -36 l-35 -31 42
-40 c59 -56 76 -54 67 8 -4 26 -11 50 -17 53 -11 8 24 29 47 29 8 0 27 11 42
25 l27 25 -42 0 c-28 0 -41 -4 -41 -14z"/>
<path d="M586 538 c7 -96 -11 -290 -31 -330 -14 -30 -7 -35 26 -18 18 10 19
23 19 215 0 126 -4 206 -10 210 -7 4 -8 -22 -4 -77z"/>
<path d="M480 210 c-23 -7 -22 -8 10 -9 19 0 42 4 50 9 12 8 10 10 -10 9 -14
-1 -36 -5 -50 -9z"/>
</g>
</svg>
