<svg xmlns="http://www.w3.org/2000/svg" width="24" height="24" fill="white" viewBox="0 0 24 24"><path d="M12 2.163c3.204 0 3.584.012 4.849.07 1.366.062 2.633.338 3.608 1.313.975.975 1.251 2.242 1.313 3.608.058 1.265.07 1.645.07 4.849s-.012 3.584-.07 4.849c-.062 1.366-.338 2.633-1.313 3.608-.975.975-2.242 1.251-3.608 1.313-1.265.058-1.645.07-4.849.07s-3.584-.012-4.849-.07c-1.366-.062-2.633-.338-3.608-1.313-.975-.975-1.251-2.242-1.313-3.608C2.175 15.584 2.163 15.204 2.163 12s.012-3.584.07-4.849c.062-1.366.338-2.633 1.313-3.608.975-.975 2.242-1.251 3.608-1.313C8.416 2.175 8.796 2.163 12 2.163zm0-2.163C8.741 0 8.332.012 7.052.07 5.773.127 4.587.407 3.515 1.479 2.443 2.551 2.163 3.737 2.106 5.016.048 5.584 0 5.963 0 9.209v5.582c0 3.246.048 3.625.106 4.904.057 1.279.337 2.465 1.409 3.537 1.072 1.072 2.258 1.352 3.537 1.409 1.279.058 1.658.106 4.904.106s3.625-.048 4.904-.106c1.279-.057 2.465-.337 3.537-1.409 1.072-1.072 1.352-2.258 1.409-3.537.058-1.279.106-1.658.106-4.904V9.209c0-3.246-.048-3.625-.106-4.904-.057-1.279-.337-2.465-1.409-3.537C19.465.407 18.279.127 17 .07 15.719.012 15.309 0 12 0z"></path><circle cx="12" cy="12" r="3.5"></circle></svg>
